<mxfile host="app.diagrams.net" modified="2023-09-22T11:40:25.399Z" agent="Mozilla/5.0 (Windows NT 10.0; Win64; x64) AppleWebKit/537.36 (KHTML, like Gecko) Chrome/116.0.0.0 Safari/537.36" etag="2aHoRthetJtXpOGU7tdM" version="21.2.9" type="device">
  <diagram name="Side-1" id="9zV4TEWNxLsRhH_TJFxu">
    <mxGraphModel dx="1889" dy="614" grid="1" gridSize="10" guides="1" tooltips="1" connect="1" arrows="1" fold="1" page="1" pageScale="1" pageWidth="827" pageHeight="1169" math="0" shadow="0">
      <root>
        <mxCell id="0" />
        <mxCell id="1" parent="0" />
        <mxCell id="CM-ucKZ6M1BcmzQsLJ6T-2" style="edgeStyle=orthogonalEdgeStyle;rounded=0;orthogonalLoop=1;jettySize=auto;html=1;entryX=0.5;entryY=0;entryDx=0;entryDy=0;" edge="1" parent="1" source="CM-ucKZ6M1BcmzQsLJ6T-1" target="CM-ucKZ6M1BcmzQsLJ6T-3">
          <mxGeometry relative="1" as="geometry">
            <mxPoint x="140" y="320" as="targetPoint" />
          </mxGeometry>
        </mxCell>
        <mxCell id="CM-ucKZ6M1BcmzQsLJ6T-20" style="edgeStyle=orthogonalEdgeStyle;rounded=0;orthogonalLoop=1;jettySize=auto;html=1;" edge="1" parent="1" source="CM-ucKZ6M1BcmzQsLJ6T-1" target="CM-ucKZ6M1BcmzQsLJ6T-19">
          <mxGeometry relative="1" as="geometry" />
        </mxCell>
        <mxCell id="CM-ucKZ6M1BcmzQsLJ6T-23" style="edgeStyle=orthogonalEdgeStyle;rounded=0;orthogonalLoop=1;jettySize=auto;html=1;" edge="1" parent="1" source="CM-ucKZ6M1BcmzQsLJ6T-1" target="CM-ucKZ6M1BcmzQsLJ6T-22">
          <mxGeometry relative="1" as="geometry">
            <Array as="points">
              <mxPoint x="310" y="203" />
              <mxPoint x="370" y="203" />
            </Array>
          </mxGeometry>
        </mxCell>
        <mxCell id="CM-ucKZ6M1BcmzQsLJ6T-1" value="Home" style="rounded=0;whiteSpace=wrap;html=1;" vertex="1" parent="1">
          <mxGeometry x="220" y="115" width="120" height="60" as="geometry" />
        </mxCell>
        <mxCell id="CM-ucKZ6M1BcmzQsLJ6T-11" style="edgeStyle=orthogonalEdgeStyle;rounded=0;orthogonalLoop=1;jettySize=auto;html=1;" edge="1" parent="1" source="CM-ucKZ6M1BcmzQsLJ6T-3" target="CM-ucKZ6M1BcmzQsLJ6T-10">
          <mxGeometry relative="1" as="geometry">
            <Array as="points">
              <mxPoint x="180" y="230" />
              <mxPoint x="280" y="230" />
            </Array>
          </mxGeometry>
        </mxCell>
        <mxCell id="CM-ucKZ6M1BcmzQsLJ6T-15" style="edgeStyle=orthogonalEdgeStyle;rounded=0;orthogonalLoop=1;jettySize=auto;html=1;" edge="1" parent="1" source="CM-ucKZ6M1BcmzQsLJ6T-3" target="CM-ucKZ6M1BcmzQsLJ6T-14">
          <mxGeometry relative="1" as="geometry">
            <Array as="points">
              <mxPoint x="140" y="195" />
            </Array>
          </mxGeometry>
        </mxCell>
        <mxCell id="CM-ucKZ6M1BcmzQsLJ6T-3" value="1" style="rhombus;whiteSpace=wrap;html=1;" vertex="1" parent="1">
          <mxGeometry x="160" y="175" width="40" height="40" as="geometry" />
        </mxCell>
        <mxCell id="CM-ucKZ6M1BcmzQsLJ6T-7" style="edgeStyle=orthogonalEdgeStyle;rounded=0;orthogonalLoop=1;jettySize=auto;html=1;startArrow=ERone;startFill=0;" edge="1" parent="1" source="CM-ucKZ6M1BcmzQsLJ6T-4" target="CM-ucKZ6M1BcmzQsLJ6T-6">
          <mxGeometry relative="1" as="geometry" />
        </mxCell>
        <mxCell id="CM-ucKZ6M1BcmzQsLJ6T-4" value="Registration 01" style="rounded=0;whiteSpace=wrap;html=1;" vertex="1" parent="1">
          <mxGeometry x="-60" y="310" width="120" height="60" as="geometry" />
        </mxCell>
        <mxCell id="CM-ucKZ6M1BcmzQsLJ6T-18" style="edgeStyle=orthogonalEdgeStyle;rounded=0;orthogonalLoop=1;jettySize=auto;html=1;startArrow=ERone;startFill=0;" edge="1" parent="1" source="CM-ucKZ6M1BcmzQsLJ6T-6" target="CM-ucKZ6M1BcmzQsLJ6T-10">
          <mxGeometry relative="1" as="geometry">
            <Array as="points">
              <mxPoint x="140" y="430" />
              <mxPoint x="140" y="350" />
            </Array>
          </mxGeometry>
        </mxCell>
        <mxCell id="CM-ucKZ6M1BcmzQsLJ6T-6" value="Registration 02" style="rounded=0;whiteSpace=wrap;html=1;" vertex="1" parent="1">
          <mxGeometry x="-60" y="400" width="120" height="60" as="geometry" />
        </mxCell>
        <mxCell id="CM-ucKZ6M1BcmzQsLJ6T-8" value="1) If the user isn&#39;t logged in, they&#39;ll be taken to the Login page.&lt;br&gt;2) If logged in and drivers license provided." style="text;html=1;strokeColor=none;fillColor=none;align=center;verticalAlign=middle;whiteSpace=wrap;rounded=0;" vertex="1" parent="1">
          <mxGeometry x="-310" y="70" width="240" height="150" as="geometry" />
        </mxCell>
        <mxCell id="CM-ucKZ6M1BcmzQsLJ6T-13" style="edgeStyle=orthogonalEdgeStyle;rounded=0;orthogonalLoop=1;jettySize=auto;html=1;" edge="1" parent="1" source="CM-ucKZ6M1BcmzQsLJ6T-10" target="CM-ucKZ6M1BcmzQsLJ6T-12">
          <mxGeometry relative="1" as="geometry" />
        </mxCell>
        <mxCell id="CM-ucKZ6M1BcmzQsLJ6T-10" value="Profile" style="rounded=0;whiteSpace=wrap;html=1;" vertex="1" parent="1">
          <mxGeometry x="220" y="310" width="120" height="60" as="geometry" />
        </mxCell>
        <mxCell id="CM-ucKZ6M1BcmzQsLJ6T-12" value="License" style="rounded=0;whiteSpace=wrap;html=1;" vertex="1" parent="1">
          <mxGeometry x="220" y="400" width="120" height="60" as="geometry" />
        </mxCell>
        <mxCell id="CM-ucKZ6M1BcmzQsLJ6T-16" style="edgeStyle=orthogonalEdgeStyle;rounded=0;orthogonalLoop=1;jettySize=auto;html=1;entryX=0.5;entryY=0;entryDx=0;entryDy=0;" edge="1" parent="1" source="CM-ucKZ6M1BcmzQsLJ6T-14" target="CM-ucKZ6M1BcmzQsLJ6T-4">
          <mxGeometry relative="1" as="geometry">
            <Array as="points">
              <mxPoint y="280" />
            </Array>
          </mxGeometry>
        </mxCell>
        <mxCell id="CM-ucKZ6M1BcmzQsLJ6T-17" style="edgeStyle=orthogonalEdgeStyle;rounded=0;orthogonalLoop=1;jettySize=auto;html=1;startArrow=ERone;startFill=0;" edge="1" parent="1" source="CM-ucKZ6M1BcmzQsLJ6T-14" target="CM-ucKZ6M1BcmzQsLJ6T-10">
          <mxGeometry relative="1" as="geometry">
            <Array as="points">
              <mxPoint x="140" y="330" />
            </Array>
          </mxGeometry>
        </mxCell>
        <mxCell id="CM-ucKZ6M1BcmzQsLJ6T-14" value="Login" style="rounded=0;whiteSpace=wrap;html=1;" vertex="1" parent="1">
          <mxGeometry x="80" y="250" width="120" height="60" as="geometry" />
        </mxCell>
        <mxCell id="CM-ucKZ6M1BcmzQsLJ6T-19" value="All Cars" style="rounded=0;whiteSpace=wrap;html=1;" vertex="1" parent="1">
          <mxGeometry x="430" y="115" width="120" height="60" as="geometry" />
        </mxCell>
        <mxCell id="CM-ucKZ6M1BcmzQsLJ6T-25" style="edgeStyle=orthogonalEdgeStyle;rounded=0;orthogonalLoop=1;jettySize=auto;html=1;" edge="1" parent="1" source="CM-ucKZ6M1BcmzQsLJ6T-21" target="CM-ucKZ6M1BcmzQsLJ6T-22">
          <mxGeometry relative="1" as="geometry">
            <Array as="points">
              <mxPoint x="493" y="201" />
              <mxPoint x="430" y="201" />
            </Array>
          </mxGeometry>
        </mxCell>
        <mxCell id="CM-ucKZ6M1BcmzQsLJ6T-21" value="All Cars" style="rounded=0;whiteSpace=wrap;html=1;" vertex="1" parent="1">
          <mxGeometry x="433" y="112" width="120" height="60" as="geometry" />
        </mxCell>
        <mxCell id="CM-ucKZ6M1BcmzQsLJ6T-26" style="edgeStyle=orthogonalEdgeStyle;rounded=0;orthogonalLoop=1;jettySize=auto;html=1;" edge="1" parent="1" source="CM-ucKZ6M1BcmzQsLJ6T-22">
          <mxGeometry relative="1" as="geometry">
            <mxPoint x="400" y="330" as="targetPoint" />
          </mxGeometry>
        </mxCell>
        <mxCell id="CM-ucKZ6M1BcmzQsLJ6T-22" value="Car" style="rounded=0;whiteSpace=wrap;html=1;" vertex="1" parent="1">
          <mxGeometry x="340" y="230" width="120" height="60" as="geometry" />
        </mxCell>
        <mxCell id="CM-ucKZ6M1BcmzQsLJ6T-28" style="edgeStyle=orthogonalEdgeStyle;rounded=0;orthogonalLoop=1;jettySize=auto;html=1;" edge="1" parent="1" source="CM-ucKZ6M1BcmzQsLJ6T-27" target="CM-ucKZ6M1BcmzQsLJ6T-29">
          <mxGeometry relative="1" as="geometry">
            <mxPoint x="470" y="350" as="targetPoint" />
          </mxGeometry>
        </mxCell>
        <mxCell id="CM-ucKZ6M1BcmzQsLJ6T-31" style="edgeStyle=orthogonalEdgeStyle;rounded=0;orthogonalLoop=1;jettySize=auto;html=1;" edge="1" parent="1" source="CM-ucKZ6M1BcmzQsLJ6T-27" target="CM-ucKZ6M1BcmzQsLJ6T-30">
          <mxGeometry relative="1" as="geometry">
            <Array as="points">
              <mxPoint x="400" y="430" />
            </Array>
          </mxGeometry>
        </mxCell>
        <mxCell id="CM-ucKZ6M1BcmzQsLJ6T-27" value="2" style="rhombus;whiteSpace=wrap;html=1;" vertex="1" parent="1">
          <mxGeometry x="380" y="330" width="40" height="40" as="geometry" />
        </mxCell>
        <mxCell id="CM-ucKZ6M1BcmzQsLJ6T-32" style="edgeStyle=orthogonalEdgeStyle;rounded=0;orthogonalLoop=1;jettySize=auto;html=1;startArrow=ERone;startFill=0;" edge="1" parent="1" source="CM-ucKZ6M1BcmzQsLJ6T-29" target="CM-ucKZ6M1BcmzQsLJ6T-30">
          <mxGeometry relative="1" as="geometry" />
        </mxCell>
        <mxCell id="CM-ucKZ6M1BcmzQsLJ6T-29" value="Payment 01" style="rounded=0;whiteSpace=wrap;html=1;" vertex="1" parent="1">
          <mxGeometry x="460" y="320" width="120" height="60" as="geometry" />
        </mxCell>
        <mxCell id="CM-ucKZ6M1BcmzQsLJ6T-35" value="" style="edgeStyle=orthogonalEdgeStyle;rounded=0;orthogonalLoop=1;jettySize=auto;html=1;startArrow=ERone;startFill=0;" edge="1" parent="1" source="CM-ucKZ6M1BcmzQsLJ6T-30" target="CM-ucKZ6M1BcmzQsLJ6T-34">
          <mxGeometry relative="1" as="geometry" />
        </mxCell>
        <mxCell id="CM-ucKZ6M1BcmzQsLJ6T-30" value="Payment 02" style="rounded=0;whiteSpace=wrap;html=1;" vertex="1" parent="1">
          <mxGeometry x="460" y="400" width="120" height="60" as="geometry" />
        </mxCell>
        <mxCell id="CM-ucKZ6M1BcmzQsLJ6T-40" style="edgeStyle=orthogonalEdgeStyle;rounded=0;orthogonalLoop=1;jettySize=auto;html=1;entryX=1;entryY=0.5;entryDx=0;entryDy=0;" edge="1" parent="1" source="CM-ucKZ6M1BcmzQsLJ6T-34" target="CM-ucKZ6M1BcmzQsLJ6T-39">
          <mxGeometry relative="1" as="geometry" />
        </mxCell>
        <mxCell id="CM-ucKZ6M1BcmzQsLJ6T-34" value="Confirmation" style="whiteSpace=wrap;html=1;rounded=0;" vertex="1" parent="1">
          <mxGeometry x="460" y="480" width="120" height="60" as="geometry" />
        </mxCell>
        <mxCell id="CM-ucKZ6M1BcmzQsLJ6T-38" style="edgeStyle=orthogonalEdgeStyle;rounded=0;orthogonalLoop=1;jettySize=auto;html=1;" edge="1" parent="1" source="CM-ucKZ6M1BcmzQsLJ6T-37" target="CM-ucKZ6M1BcmzQsLJ6T-1">
          <mxGeometry relative="1" as="geometry" />
        </mxCell>
        <mxCell id="CM-ucKZ6M1BcmzQsLJ6T-37" value="A" style="ellipse;whiteSpace=wrap;html=1;aspect=fixed;" vertex="1" parent="1">
          <mxGeometry x="265" y="50" width="30" height="30" as="geometry" />
        </mxCell>
        <mxCell id="CM-ucKZ6M1BcmzQsLJ6T-39" value="A" style="ellipse;whiteSpace=wrap;html=1;aspect=fixed;" vertex="1" parent="1">
          <mxGeometry x="385" y="495" width="30" height="30" as="geometry" />
        </mxCell>
        <mxCell id="CM-ucKZ6M1BcmzQsLJ6T-41" value="" style="whiteSpace=wrap;html=1;shape=mxgraph.basic.octagon2;align=center;verticalAlign=middle;dx=15;" vertex="1" parent="1">
          <mxGeometry x="670" y="120" width="160" height="330" as="geometry" />
        </mxCell>
        <mxCell id="CM-ucKZ6M1BcmzQsLJ6T-43" style="edgeStyle=orthogonalEdgeStyle;rounded=0;orthogonalLoop=1;jettySize=auto;html=1;entryX=-0.003;entryY=0.23;entryDx=0;entryDy=0;entryPerimeter=0;" edge="1" parent="1" source="CM-ucKZ6M1BcmzQsLJ6T-42" target="CM-ucKZ6M1BcmzQsLJ6T-41">
          <mxGeometry relative="1" as="geometry" />
        </mxCell>
        <mxCell id="CM-ucKZ6M1BcmzQsLJ6T-42" value="" style="rounded=1;whiteSpace=wrap;html=1;dashed=1;" vertex="1" parent="1">
          <mxGeometry x="560" y="175" width="70" height="40" as="geometry" />
        </mxCell>
      </root>
    </mxGraphModel>
  </diagram>
</mxfile>
